<svg width="48" height="48" viewBox="0 0 48 48" fill="none" xmlns="http://www.w3.org/2000/svg">
<circle opacity="0.2" cx="24" cy="24" r="24" fill="white"/>
<path d="M18.9 32.6L19.2859 31.9569C19.1079 31.8501 18.8936 31.8218 18.694 31.8789L18.9 32.6ZM15.3 29L16.0259 29.1887C16.0732 29.0065 16.0504 28.8132 15.9618 28.6471L15.3 29ZM15.683 33.5191L15.889 34.2403L15.683 33.5191ZM18.5141 33.2431C20.132 34.2139 22.0656 34.75 24 34.75V33.25C22.3344 33.25 20.668 32.7861 19.2859 31.9569L18.5141 33.2431ZM24 34.75C29.9142 34.75 34.75 29.9142 34.75 24H33.25C33.25 29.0858 29.0858 33.25 24 33.25V34.75ZM34.75 24C34.75 18.0858 29.9142 13.25 24 13.25V14.75C29.0858 14.75 33.25 18.9142 33.25 24H34.75ZM24 13.25C18.0858 13.25 13.25 18.0858 13.25 24H14.75C14.75 18.9142 18.9142 14.75 24 14.75V13.25ZM13.25 24C13.25 25.9405 13.7891 27.7608 14.6382 29.3529L15.9618 28.6471C15.2109 27.2392 14.75 25.6595 14.75 24H13.25ZM14.5741 28.8113L13.7146 32.1173L15.1663 32.4947L16.0259 29.1887L14.5741 28.8113ZM15.889 34.2403L19.106 33.3211L18.694 31.8789L15.4769 32.798L15.889 34.2403ZM13.7146 32.1173C13.3738 33.4279 14.5869 34.6123 15.889 34.2403L15.4769 32.798C15.2909 32.8512 15.1176 32.6819 15.1663 32.4947L13.7146 32.1173Z" fill="white"/>
<path d="M28.5 26.8485C28.5 27.0105 28.4639 27.177 28.3873 27.339C28.3107 27.501 28.2116 27.654 28.0809 27.798C27.86 28.041 27.6167 28.2165 27.3418 28.329C27.0714 28.4415 26.7784 28.5 26.4629 28.5C26.0033 28.5 25.512 28.392 24.9937 28.1715C24.4755 27.951 23.9572 27.654 23.4434 27.2805C22.9251 26.9025 22.4339 26.484 21.9652 26.0205C21.501 25.5525 21.0819 25.062 20.7078 24.549C20.3383 24.036 20.0408 23.523 19.8245 23.0145C19.6082 22.5015 19.5 22.011 19.5 21.543C19.5 21.237 19.5541 20.9445 19.6622 20.6745C19.7704 20.4 19.9417 20.148 20.1805 19.923C20.469 19.6395 20.7844 19.5 21.1179 19.5C21.2441 19.5 21.3703 19.527 21.483 19.581C21.6002 19.635 21.7038 19.716 21.7849 19.833L22.8305 21.3045C22.9116 21.417 22.9702 21.5205 23.0108 21.6195C23.0513 21.714 23.0739 21.8085 23.0739 21.894C23.0739 22.002 23.0423 22.11 22.9792 22.2135C22.9206 22.317 22.835 22.425 22.7268 22.533L22.3843 22.8885C22.3348 22.938 22.3122 22.9965 22.3122 23.0685C22.3122 23.1045 22.3167 23.136 22.3257 23.172C22.3393 23.208 22.3528 23.235 22.3618 23.262C22.4429 23.4105 22.5826 23.604 22.7809 23.838C22.9837 24.072 23.2 24.3105 23.4344 24.549C23.6778 24.7875 23.9121 25.008 24.151 25.2105C24.3853 25.4085 24.5791 25.5435 24.7323 25.6245C24.7549 25.6335 24.7819 25.647 24.8135 25.6605C24.8495 25.674 24.8856 25.6785 24.9261 25.6785C25.0028 25.6785 25.0613 25.6515 25.1109 25.602L25.4534 25.2645C25.5661 25.152 25.6743 25.0665 25.7779 25.0125C25.8816 24.9495 25.9852 24.918 26.0979 24.918C26.1835 24.918 26.2737 24.936 26.3728 24.9765C26.472 25.017 26.5756 25.0755 26.6883 25.152L28.18 26.2095C28.2972 26.2905 28.3783 26.385 28.4279 26.4975C28.473 26.61 28.5 26.7225 28.5 26.8485Z" stroke="white" stroke-width="1.5" stroke-miterlimit="10"/>
</svg>
